<?xml version="1.0" encoding="UTF-8"?>
<!DOCTYPE svg PUBLIC "-//W3C//DTD SVG 1.1//EN" "http://www.w3.org/Graphics/SVG/1.1/DTD/svg11.dtd">
<!-- Creator: CorelDRAW -->
<svg xmlns="http://www.w3.org/2000/svg" xml:space="preserve" width="0.249705in" height="0.2505in" version="1.1" style="shape-rendering:geometricPrecision; text-rendering:geometricPrecision; image-rendering:optimizeQuality; fill-rule:evenodd; clip-rule:evenodd"
viewBox="0 0 8.84 8.87"
 xmlns:xlink="http://www.w3.org/1999/xlink"
 xmlns:xodm="http://www.corel.com/coreldraw/odm/2003">
 <defs>
  <style type="text/css">
   <![CDATA[
    .fil0 {fill:#710096;fill-rule:nonzero}
   ]]>
  </style>
 </defs>
 <g id="Layer_x0020_1">
  <metadata id="CorelCorpID_0Corel-Layer"/>
  <path class="fil0" d="M0 3.84l-0 0.35c-0.01,1.94 -0.02,3.89 2.1,4.46 0.63,0.17 1.84,0.26 2.99,0.21 0.93,-0.05 1.82,-0.19 2.31,-0.46 1.46,-0.8 1.44,-2.57 1.43,-4.15l-0 -0.4c0,-0.3 -0.02,-0.61 -0.05,-0.9 -0.04,-0.29 -0.09,-0.58 -0.15,-0.81 -0.06,-0.23 -0.16,-0.48 -0.28,-0.71 -0.11,-0.2 -0.23,-0.38 -0.38,-0.53 -0.07,-0.07 -0.16,-0.14 -0.25,-0.2 -0.09,-0.07 -0.19,-0.13 -0.29,-0.18 -0.08,-0.05 -0.19,-0.1 -0.31,-0.14 -0.14,-0.05 -0.28,-0.1 -0.39,-0.13 -0.65,-0.17 -1.81,-0.26 -2.92,-0.21 -0.93,0.04 -1.84,0.19 -2.39,0.46 -0.07,0.04 -0.18,0.11 -0.29,0.18 -0.11,0.08 -0.21,0.16 -0.27,0.22 -0.17,0.17 -0.3,0.36 -0.41,0.57 -0.11,0.21 -0.19,0.44 -0.25,0.67 -0.06,0.24 -0.12,0.52 -0.15,0.81 -0.04,0.3 -0.05,0.61 -0.05,0.9l-0 0z"/>
 </g>
</svg>
