<?xml version="1.0" encoding="UTF-8"?>
<!DOCTYPE svg PUBLIC "-//W3C//DTD SVG 1.1//EN" "http://www.w3.org/Graphics/SVG/1.1/DTD/svg11.dtd">
<!-- Creator: CorelDRAW -->
<svg xmlns="http://www.w3.org/2000/svg" xml:space="preserve" width="4.79674in" height="1.11865in" version="1.1" style="shape-rendering:geometricPrecision; text-rendering:geometricPrecision; image-rendering:optimizeQuality; fill-rule:evenodd; clip-rule:evenodd"
viewBox="0 0 4796.74 1118.65"
 xmlns:xlink="http://www.w3.org/1999/xlink"
 xmlns:xodm="http://www.corel.com/coreldraw/odm/2003">
 <defs>
  <style type="text/css">
   <![CDATA[
    .fil1 {fill:#5EC5D4}
    .fil0 {fill:#710096}
    .fil2 {fill:white}
   ]]>
  </style>
 </defs>
 <g id="Layer_x0020_1">
  <metadata id="CorelCorpID_0Corel-Layer"/>
  <g id="clasier_logo_white">
   <path class="fil0" d="M24.69 536.39c132.11,-1.65 299.97,-15.08 398.43,-113.54 98.36,-98.36 111.88,-266.31 113.54,-398.34 0.09,-6.8 -2.35,-12.65 -7.06,-17.44 -4.8,-4.8 -10.64,-7.15 -17.44,-7.06 -132.02,1.65 -299.97,15.08 -398.34,113.54 -98.36,98.36 -111.88,266.31 -113.54,398.43 -0.09,6.8 2.35,12.65 7.06,17.44 4.8,4.8 10.64,7.15 17.44,7.06l-0.09 -0.09z"/>
   <path class="fil0" d="M511.97 1118.55c-132.11,-1.65 -299.97,-15.08 -398.43,-113.54 -98.36,-98.36 -111.88,-266.31 -113.54,-398.43 -0.09,-6.8 2.35,-12.65 7.06,-17.44 4.8,-4.8 10.64,-7.15 17.44,-7.06 132.03,1.65 299.97,15.09 398.34,113.54 98.36,98.36 111.88,266.31 113.54,398.34 0.08,6.8 -2.35,12.65 -7.06,17.44 -4.8,4.8 -10.64,7.15 -17.44,7.06l0.08 0.08z"/>
   <path class="fil1" d="M583.13 1094.04l0 -0.95 0 -0.78 0.26 -325.17c0.09,-101.06 82.75,-183.74 183.82,-183.82l325.17 -0.26 0.78 0 0.95 0c6.8,-0.09 12.65,2.35 17.44,7.06 4.8,4.8 7.15,10.64 7.06,17.44l0 0.95 0 0 0 0.09 0 0.09c0.17,6.28 -2,12.47 -6.45,17.61 -74.91,86.76 -154,169.87 -235.01,250.88 -81.01,81.01 -164.03,160.1 -250.88,235.01 -5.15,4.45 -11.51,6.63 -17.87,6.45l-0.08 0 -0.78 0c-6.8,0 -12.65,-2.35 -17.44,-7.06 -4.8,-4.8 -7.15,-10.64 -7.06,-17.44l0.08 -0.09z"/>
   <path class="fil0" d="M1094.13 536.39c-132.03,-1.65 -299.97,-15.08 -398.34,-113.54 -98.36,-98.36 -111.88,-266.31 -113.54,-398.34 -0.09,-6.8 2.35,-12.65 7.06,-17.44 4.8,-4.8 10.65,-7.15 17.44,-7.06 132.11,1.65 299.97,15.08 398.43,113.54 98.36,98.36 111.88,266.31 113.54,398.43 0.09,6.8 -2.35,12.65 -7.06,17.44 -4.8,4.8 -10.64,7.15 -17.44,7.06l-0.08 -0.09z"/>
   <path class="fil2" d="M1678.64 940.33c-107.14,0 -196.54,-34.98 -268.2,-104.93 -71.65,-69.95 -107.48,-156.79 -107.48,-260.52 0,-103.73 35.83,-190.57 107.48,-260.52 71.66,-69.95 161.06,-104.93 268.2,-104.93 93.5,0 174.36,27.47 242.61,82.41 68.24,54.94 110.56,125.4 126.94,211.39l-207.8 0c-13.65,-32.07 -34.98,-57.67 -63.98,-76.78 -29,-19.11 -61.59,-28.66 -97.76,-28.66 -49.82,0 -91.45,16.89 -124.89,50.67 -33.44,33.78 -50.16,75.92 -50.16,126.43 0,50.5 16.72,92.64 50.16,126.42 33.44,33.78 75.07,50.67 124.89,50.67 36.17,0 68.76,-9.55 97.76,-28.66 29,-19.11 50.33,-44.7 63.98,-76.78l207.8 0c-16.38,85.99 -58.69,156.45 -126.94,211.39 -68.24,54.94 -149.11,82.41 -242.61,82.41zm2977.86 -461.67c40.26,-45.72 87.01,-68.58 140.24,-68.58l0 189.38c-45.72,0 -80.53,9.55 -104.41,28.66 -23.89,19.11 -35.83,45.38 -35.83,78.82l0 233.39 -184.26 0 0 -522.07 184.26 0 0 60.39zm-255.92 192.44c0,20.48 -1.37,36.51 -4.09,48.11l-365.45 0c15.02,43.68 45.38,65.52 91.11,65.52 34.8,0 61.08,-10.24 78.82,-30.71l193.47 0c-18.43,55.96 -52.72,101 -102.88,135.13 -50.16,34.12 -108.34,51.18 -174.54,51.18 -80.53,0 -147.92,-26.1 -202.17,-78.31 -54.26,-52.2 -81.38,-117.21 -81.38,-195.01 0,-77.8 27.13,-142.8 81.38,-195 54.26,-52.21 121.65,-78.31 202.17,-78.31 81.21,0 148.77,26.27 202.69,78.82 53.91,52.55 80.87,118.74 80.87,198.59zm-283.56 -121.81c-40.94,0 -69.61,21.5 -85.99,64.49l173 0c-6.83,-20.47 -18.09,-36.34 -33.78,-47.6 -15.7,-11.26 -33.44,-16.89 -53.23,-16.89zm-370.56 -163.86c-21.15,21.16 -47.77,31.74 -79.84,31.74 -32.08,0 -58.7,-10.57 -79.85,-31.74 -21.17,-21.15 -31.74,-47.43 -31.74,-78.82 0,-31.39 10.57,-57.67 31.74,-78.82 21.15,-21.16 47.77,-31.74 79.85,-31.74 32.07,0 58.69,10.57 79.84,31.74 21.17,21.15 31.74,47.43 31.74,78.82 0,31.39 -10.57,57.67 -31.74,78.82zm-171.98 560.51l0 -485.9 184.27 0 0 485.9 -184.27 0zm-294.82 -0c-64.83,0 -118.57,-17.41 -161.22,-52.22 -42.65,-34.81 -63.98,-77.04 -63.98,-126.69l181.19 0c0,11.03 4.27,20.34 12.8,27.93 8.53,7.58 19.28,11.37 32.24,11.37 10.24,0 19.11,-2.41 26.62,-7.24 7.5,-4.82 11.26,-11.03 11.26,-18.61 0,-17.93 -26.61,-31.71 -79.85,-41.37 -57.32,-11.03 -101.17,-31.2 -131.54,-60.5 -30.37,-29.3 -45.55,-66.02 -45.55,-110.14 0,-55.15 20.47,-98.07 61.42,-128.75 40.94,-30.68 90.77,-46.02 149.46,-46.02 62.78,0 115.16,16.55 157.13,49.64 41.97,33.09 62.96,73.42 62.96,120.99l-182.21 0c0,-8.96 -3.59,-16.37 -10.75,-22.23 -7.17,-5.86 -15.53,-8.79 -25.08,-8.79 -8.87,0 -16.38,2.07 -22.52,6.2 -6.14,4.14 -9.21,9.65 -9.21,16.55 0,15.86 27.98,29.99 83.94,42.4 59.38,13.1 103.05,33.09 131.03,59.98 27.98,26.89 41.97,61.7 41.97,104.45 0,57.22 -21.15,102.04 -63.46,134.44 -42.31,32.41 -94.52,48.61 -156.62,48.61zm-272.29 -196.01l11.26 0 0 178.12 -50.16 0c-75.07,0 -126.94,-22.18 -155.6,-66.54 -39.58,52.55 -91.79,78.82 -156.62,78.82 -70.29,0 -128.98,-26.1 -176.07,-78.31 -47.09,-52.2 -70.63,-117.21 -70.63,-195.01 0,-77.8 23.54,-142.8 70.63,-195 47.09,-52.21 105.78,-78.31 176.07,-78.31 50.5,0 94.18,16.72 131.03,50.16l0 -37.87 184.26 0 0 308.12c0,23.89 11.94,35.83 35.83,35.83zm-381.83 -14.84c17.74,18.09 40.26,27.13 67.56,27.13 27.3,0 49.82,-9.04 67.56,-27.13 17.74,-18.08 26.61,-40.78 26.61,-68.07 0,-27.3 -8.87,-49.99 -26.61,-68.07 -17.74,-18.09 -40.26,-27.13 -67.56,-27.13 -27.3,0 -49.82,9.04 -67.56,27.13 -17.74,18.08 -26.61,40.78 -26.61,68.07 0,27.3 8.87,49.99 26.61,68.07zm-306.07 205.25c-134.41,0 -202.07,-59.71 -201.67,-179.14l1.94 -565.14 184.26 0 -1.94 534.43c-0.08,27.97 15.02,41.96 45.04,41.96l32.77 0 0 167.89 -60.4 0z"/>
  </g>
 </g>
</svg>
