<?xml version="1.0" encoding="UTF-8"?>
<!DOCTYPE svg PUBLIC "-//W3C//DTD SVG 1.1//EN" "http://www.w3.org/Graphics/SVG/1.1/DTD/svg11.dtd">
<!-- Creator: CorelDRAW -->
<svg xmlns="http://www.w3.org/2000/svg" xml:space="preserve" width="0.496646in" height="0.496646in" version="1.1" style="shape-rendering:geometricPrecision; text-rendering:geometricPrecision; image-rendering:optimizeQuality; fill-rule:evenodd; clip-rule:evenodd"
viewBox="0 0 31.04 31.04"
 xmlns:xlink="http://www.w3.org/1999/xlink"
 xmlns:xodm="http://www.corel.com/coreldraw/odm/2003">
 <defs>
  <style type="text/css">
   <![CDATA[
    .fil1 {fill:none}
    .fil0 {fill:#710096}
   ]]>
  </style>
 </defs>
 <g id="Layer_x0020_1">
  <metadata id="CorelCorpID_0Corel-Layer"/>
  <g id="_2156609355168">
   <path class="fil0" d="M19.73 6.83l0 -0.16 0.52 0 6.51 15.13c0.19,0.45 0.48,1.07 0.82,1.44 0.2,0.21 0.44,0.41 0.71,0.51l0.15 0.05 0 0.55 -0.23 -0.02c-0.47,-0.04 -0.93,-0.07 -1.4,-0.08 -0.4,-0.01 -0.8,-0.02 -1.2,-0.02 -0.41,0 -0.82,0.01 -1.23,0.02 -0.5,0.02 -0.99,0.05 -1.49,0.08l-0.01 0 -0.01 0c-0.65,0 -1.28,-0.15 -1.8,-0.56 -0.47,-0.37 -0.87,-0.82 -1.18,-1.33 -0.33,-0.53 -0.62,-1.09 -0.86,-1.67 -0.22,-0.54 -0.48,-1.07 -0.78,-1.58 -0.25,-0.43 -0.56,-0.82 -0.96,-1.12 -0.35,-0.27 -0.76,-0.36 -1.19,-0.36 -0.15,0.4 -0.31,0.8 -0.47,1.19 -0.16,0.39 -0.31,0.79 -0.47,1.18 -0.13,0.33 -0.25,0.65 -0.39,0.97 -0.09,0.23 -0.18,0.45 -0.27,0.68 -0.15,0.4 -0.21,0.83 -0.09,1.25 0.13,0.42 0.52,0.64 0.92,0.76l0.16 0.05 0 0.56 -0.24 -0.02c-0.25,-0.02 -0.51,-0.04 -0.76,-0.06 -0.2,-0.01 -0.4,-0.02 -0.59,-0.02 -0.25,0 -0.49,0.01 -0.74,0.02 -0.06,0 -0.13,0.01 -0.19,0.01 -0.52,0.07 -1.05,0.1 -1.58,0.1 -1.18,0 -2.34,-0.2 -3.44,-0.63 -1.05,-0.42 -1.99,-1.01 -2.8,-1.8 -0.83,-0.8 -1.45,-1.75 -1.89,-2.82 -0.48,-1.17 -0.68,-2.42 -0.68,-3.68 0,-1.21 0.19,-2.41 0.64,-3.54 0.42,-1.05 1.02,-1.99 1.82,-2.79 0.81,-0.8 1.75,-1.4 2.81,-1.82 1.15,-0.46 2.38,-0.65 3.61,-0.65 1.1,0 2.18,0.15 3.24,0.45 1.07,0.31 2.07,0.8 2.98,1.45l0.12 0.09 -0.9 3.38 -0.54 -0.11 -0.03 -0.13c-0.17,-0.62 -0.38,-1.23 -0.65,-1.82 -0.25,-0.52 -0.56,-1.01 -0.95,-1.43 -0.37,-0.4 -0.81,-0.71 -1.31,-0.93 -0.54,-0.24 -1.14,-0.34 -1.73,-0.34 -0.96,0 -1.89,0.19 -2.71,0.7 -0.77,0.47 -1.39,1.09 -1.87,1.85 -0.52,0.83 -0.87,1.74 -1.08,2.69 -0.24,1.04 -0.35,2.11 -0.35,3.18 0,1.02 0.13,2.03 0.4,3.01 0.25,0.92 0.63,1.8 1.16,2.59 0.5,0.73 1.12,1.34 1.89,1.8 0.79,0.47 1.67,0.67 2.59,0.67 0.62,0 0.89,-0.19 1.31,-0.66 0.03,-0.04 0.07,-0.08 0.1,-0.12 0.28,-0.37 0.51,-0.78 0.69,-1.2 0.95,-2.37 1.89,-4.74 2.83,-7.12 0.35,-0.89 0.71,-1.79 1.06,-2.68 0.31,-0.8 0.63,-1.61 0.94,-2.41 0.24,-0.61 0.48,-1.21 0.72,-1.81 0.12,-0.29 0.25,-0.6 0.35,-0.9l0.01 -0.03zm-0.93 4.12c-0.08,0.21 -0.17,0.43 -0.25,0.64 -0.22,0.56 -0.44,1.12 -0.66,1.68 -0.26,0.67 -0.53,1.33 -0.8,2 -0.24,0.6 -0.48,1.2 -0.72,1.79 0.43,0.03 0.84,0.16 1.21,0.39l0.01 0.01c0.5,0.33 0.88,0.78 1.17,1.3 0.3,0.54 0.58,1.09 0.83,1.65 0.18,0.4 0.36,0.8 0.55,1.19 0.18,0.37 0.4,0.73 0.67,1.05 0.25,0.3 0.55,0.55 0.89,0.75 0.36,0.21 0.76,0.28 1.17,0.28 0.18,0 0.38,-0.03 0.51,-0.15 0.13,-0.11 0.2,-0.25 0.25,-0.41 0.05,-0.2 0.04,-0.41 0.01,-0.62 -0.05,-0.26 -0.12,-0.52 -0.22,-0.77 -0.01,-0.02 -0.02,-0.05 -0.03,-0.07 -0.02,-0.03 -0.03,-0.06 -0.04,-0.09 -0.52,-1.22 -1.05,-2.44 -1.57,-3.66 -0.36,-0.85 -0.73,-1.71 -1.1,-2.56 -0.25,-0.57 -0.5,-1.15 -0.74,-1.72 -0.17,-0.4 -0.33,-0.8 -0.51,-1.19 -0.14,-0.32 -0.27,-0.63 -0.41,-0.95 -0.08,-0.18 -0.15,-0.35 -0.23,-0.53z"/>
   <rect class="fil1" width="31.04" height="31.04"/>
  </g>
 </g>
</svg>
